<svg xmlns="http://www.w3.org/2000/svg" viewBox="0 0 230.12 150.44"><defs><style>.cls-1{fill:none;}.cls-2{fill:#00318a;}.cls-3{fill:#596db1;}.cls-4{fill:#586eb1;}.cls-5{fill:#d3d3d6;}.cls-6{fill:#596db2;}.cls-7{fill:#d2d3d9;}.cls-8{fill:#cdd3e0;}.cls-9{fill:#b4c8eb;}.cls-10{fill:#d3d3d7;}.cls-11,.cls-33{fill:#5a6db2;}.cls-12{fill:#536eb5;}.cls-13{fill:#5a6eae;}.cls-14{fill:#576db5;}.cls-15{fill:#d2d3d8;}.cls-16{fill:#d2d3d7;}.cls-17{fill:#d3d3d8;}.cls-18{fill:#566db5;}.cls-19{fill:#556db6;}.cls-20{fill:#d1d3d8;}.cls-21{fill:#566daf;}.cls-22{fill:#cdd3df;}.cls-23{fill:#5a6db1;}.cls-24{fill:#6c81b9;}.cls-25{fill:#043083;}.cls-26{fill:#cfd3de;}.cls-27{fill:#d2d3d6;}.cls-28{fill:#586db3;}.cls-29{fill:#c8cde1;}.cls-30{fill:#586eaf;}.cls-31{fill:#4c68a4;}.cls-32{fill:#5a72ae;}.cls-33{font-size:126.07px;font-family:Haettenschweiler, Haettenschweiler;}</style></defs><title>Logo</title><g id="Capa_2" data-name="Capa 2"><g id="Layer_1" data-name="Layer 1"><path class="cls-1" d="M47.78,7.37c-2.69,0-5.82.29-7.42,2.77h-.41c0,.36.08,1.09.11,1.45,1.23.47,3,.62,3.42,2.12.93,2.3-.38,4.6-1.51,6.55a8.63,8.63,0,0,1-3.71.73c-1.47-.36-2.6-1.45-3.91-2.16l.22.52a5.41,5.41,0,0,0-.48,3.09c.26,2,2.18,3.07,3.55,4.3a46.61,46.61,0,0,1-4.78,7.48c-2.83-.15-5.63-.64-8.46-.86a33.64,33.64,0,0,0-6.53-3,30.07,30.07,0,0,0-2.12-2.8,16.23,16.23,0,0,0,6-4.68,11.4,11.4,0,0,0,1.54-10.61c-.77-1.71-1.73-3.85-3.86-4-2.53-4.33-8.4-6.92-13-4.44A9.76,9.76,0,0,0,.35,10.36c-1.07,4,.27,9.1,4.17,11.12.58.51,1.2,1,1.82,1.42a12.76,12.76,0,0,0-2.51,1.31,18.68,18.68,0,0,0,3.95.64c0,.44,0,1.34,0,1.79-1.48-.13-3.34.09-4.08,1.58-.66.94-.29,2.09-.09,3.12.59,1.52-1.15,3-.36,4.46.55,1.34.94,2.75,1.56,4.06A4.56,4.56,0,0,0,7.85,41c.12,7.45.06,14.9.05,22.34-2.46,1.48-5.67,2.78-6.35,5.9-.11.81-.76,2,.23,2.54L2,71.15l.77-.28c.84,1.46.87,3.2,1.43,4.77l.19-.72L6.05,74c.49,2.49,2.13,4.7,1.89,7.33-.12,4.34.17,8.69-.17,13l-2.15.79c0,.88.08,1.76.12,2.65,0,.41-.05,1.24-.08,1.66l1.65.7A6.38,6.38,0,0,0,6,104a6.66,6.66,0,0,0,4.09,3.37A4.56,4.56,0,0,0,13,110c-1.78,2.25-1.22,5.29-1.19,7.94A4,4,0,0,0,13,120.94l.1.4c1.64.31,1-2.35,2.24-2.93.11,2-.36,4.65,1.73,5.81.81-1.16,1.61-2.33,2.47-3.46l1.37.88.65,1,.46-1.24a9.44,9.44,0,0,0,3,4,18.28,18.28,0,0,1,3.09-4.76,12.91,12.91,0,0,0,1.83,1.29,16.65,16.65,0,0,0,3.6,2.9,26.08,26.08,0,0,1,1.58-4c2-.85,4.76-.28,6.07-2.41,1.71-2.77,1.69-6.31,3.63-9,1.68-2.41,4.7-3.11,7.18-4.37-1.67-.69-3.34-1.4-5-2.2.49-.21,1-.42,1.48-.64-1.06-.4-2.14-.77-3.17-1.23.28-1.42.32-3,1.28-4.17,1.69-2.1,4.27-3.08,6.65-4.15a14.35,14.35,0,0,0,7.35,7A9.84,9.84,0,0,0,64,102.94a15.69,15.69,0,0,1,0,5.33c-.24.83-.41,2.07-1.5,2.13-3.43.61-7.71.14-10.17,3.11a9.47,9.47,0,0,0,.19,8.77l.76,1.19c.44-1.12.8-2.26,1.27-3.35.46,2.06.58,4.36,2.18,5.93.83-1.7,1.59-3.67,3.62-4.2L61,123l1.25-1A14.07,14.07,0,0,0,65.13,126a21.71,21.71,0,0,1,3.29-4.12l.37.4c1.21,1,2.41,2,3.64,3,.48-.79,1-1.58,1.43-2.38,1.36-.57,3.31-.46,4.1-1.88.53-2,0-4,0-6-.41-6.89,1.51-14.07,6.38-19.13-2,.18-4.05.31-6.08.36.79-1.21,1.73-2.3,2.61-3.44-3.41.73-7.21.85-10.2-1.22-.86-2.24-2.12-4.48-1.85-7l1.34.76c1.72,2.37,4.64,3.37,7.34,4.13,4.25,1.07,9.44.92,12.64-2.48,2.63-2.44,3-6.43,2-9.71-1.05-3.87-3.85-6.85-6.4-9.8a3,3,0,0,1-.11-4.15c.88-1.09,2.41-1.07,3.65-1.39.16,1.56.06,3.14.07,4.72a8.86,8.86,0,0,0,2.41-1.22l.45-.46a17.93,17.93,0,0,1,.89,4.5c3.41-1.33,6.14-4.78,5.87-8.54a6.46,6.46,0,0,0-4.25-6,9.94,9.94,0,0,0-6.8-4.36c2-1.78,4.19-3.38,6.2-5.18,2.49-2.33,4.57-5.49,4.39-9,.11-3-1.41-6.2-4.4-7.25C90.8,24,82.9,23.07,78.38,27c-.89-.37-1.77-.77-2.68-1.07,2.71-.67,4.29-3.17,4.74-5.78-1.88,1.16-3.85,3.23-6.26,2.45,1-1.84,2.5-3.43,3.27-5.41-.37-1.63-2.15-2.39-3.31-3.44-1.67-1.36-3.55-2.58-4.53-4.57-4.68-.67-10-.9-13.56-4.39C54.47,3.52,53.95,1.49,52.7,0,50,1.43,46.91,3.86,47.78,7.37M66.69,25.59c.82-1.14,2-3.5,3.65-2.11,1,.71,2,1.44,3.11,2.06a8.49,8.49,0,0,0,.3,2.33,16.23,16.23,0,0,0,2.77,1.51,27.67,27.67,0,0,0-.38,5.31c.39-.62.78-1.25,1.16-1.88.79-.59,1.61-1.16,2.45-1.69a47.64,47.64,0,0,1-.06,6.35,13.1,13.1,0,0,1,4.75-3.75,5.68,5.68,0,0,1-1.3,3.73C79.4,41.89,73.81,44.8,71.38,50.3c-1.84,4.61.09,9.8,3,13.51,2.23,3,5.24,5.59,6.31,9.28.74,2.35.07,5.32-2.21,6.58-2.83,1.57-6.37.78-9.06-.74a62.07,62.07,0,0,1-4.2-16.12c-.44-3.48-2.87-6.48-2.51-10.09,2.54-.38,5.56-.37,7.35-2.53,2-2.12,1.4-5.35.25-7.74l-2.14.82-.38-1c-.37-1-.76-2-1.16-3-1.31,1.1-2.72,2.23-4.52,2.3-.44-2.69-1.27-6.28,1.4-8.1,2.34-1.82,4.92.5,7,1.57-.17-2.12-.35-4.24-.54-6.37l-3.37-.08c0-1,0-2,0-3M16.13,44.79q2.76.43,5.51,1A6.25,6.25,0,0,1,21.81,48c-.73,1.07-2,1.55-3,2.29a28.84,28.84,0,0,0,3.08,2.54c1.18.89,2.29,1.87,3.39,2.86-3,2-5.9,4.26-9.08,6-.19-5.65-.23-11.32,0-17m13.78,34.3c5.27-1,9-5,13-8.18l1.28,1.91A41.68,41.68,0,0,0,31.6,81.3c-2.78,2.81-5.62,6.54-4.8,10.75.47,2.2,3.13,3,3.83,5-.16,3.39-.86,7-2.92,9.78-2.68,3-7,1.4-10.49,1.45a34.86,34.86,0,0,1,.55-7.74C18.4,98.42,16,97.18,16,95.18c0-3.4-.14-6.82.08-10.22.78-1.77,1.68-3.49,2.44-5.27a9,9,0,0,1,7.06-3.25c1.67.38,2.93,1.68,4.3,2.64Z"/><path class="cls-2" d="M52.7,0c1.25,1.49,1.77,3.52,3.35,4.76,3.59,3.49,8.88,3.72,13.56,4.39,1,2,2.85,3.22,4.53,4.57-1.18,3-3.4,5.41-5.2,8-1.08-.7-2.12-2.32-3.55-1.64a5,5,0,0,0-2.61,5.42,25.89,25.89,0,0,0,3.91.06c0,1-.06,2,0,3,.06,1.22.21,2.42.35,3.64-2-1.15-4.27-3-6.67-1.95-2.66,1.36-2.57,5-1.85,7.46a5.88,5.88,0,0,0,3.65,3.83c1.8-.07,3.21-1.19,4.52-2.3.4,1,.8,2,1.16,3,0,1.84-.08,4-1.56,5.3-1.85,2-4.73,2-7.22,2.11-.55,3.52,2.1,6.22,2.52,9.55,1,5.93,1.82,12.06,4.85,17.36a12.33,12.33,0,0,0,8.66,7c2.93.6,6.36-.26,8.13-2.81a10,10,0,0,0,.73-8.49c-1.79-5.15-6.57-8.45-8.81-13.34a9.29,9.29,0,0,1,.62-9.07c2.49-3.67,6.28-6.13,9.45-9.15,1.57-1.53,3.08-3.37,3.39-5.61.39-3.86-3.7-7.52-7.51-6.38-2,.49-2.87,2.5-3.77,4.12-.38.63-.77,1.26-1.16,1.88a27.67,27.67,0,0,1,.38-5.31A20.25,20.25,0,0,1,78.38,27C82.9,23.07,90.8,24,94.09,29.09a10.88,10.88,0,0,1-.58,9.7c-3,4.82-8.23,7.4-12.29,11.14a13.17,13.17,0,0,0-3,4.33c2.82-2,6-3.94,9.62-3.7a9.94,9.94,0,0,1,6.8,4.36A8.68,8.68,0,0,1,92.18,65l-.45.46c.37-2.32,1.23-5.08-.52-7.06a5.84,5.84,0,0,0-9.1-.36C81,59.31,81,61.13,81,62.75c2.77,3.89,6.56,7.3,7.68,12.13,1.23,4-.29,8.8-4.07,10.79-4.48,2.41-9.92,1.45-14.45-.34l-1.34-.76c-1.27-.81-2.53-1.62-3.85-2.35a13.68,13.68,0,0,0,5.7,9.32c3,2.08,6.79,2,10.2,1.22C79.95,93.91,79,95,78.22,96.21c-4.3,6-4.06,13.6-3.62,20.57.23,2-1.74,2.59-3.29,2.88-1.41.13-1.84,1.6-2.51,2.6l-.37-.4-.29-.32c-.28-.76-.52-1.54-.77-2.3l-1.65-.17c-1.87-.13-2.72,1.55-3.43,3L61,123c-.08-1.48-.16-2.95-.22-4.42-1.15.08-2.31.17-3.45.35a6.85,6.85,0,0,0-2.79,1.13c-.47,1.09-.83,2.23-1.27,3.35l-.76-1.19c0-2.84-1.76-6.7,1.15-8.68,3.38-2.18,7.61-1.37,11.41-1.76,1.82-3.05,3.45-6.44,3.35-10.08a7.46,7.46,0,0,0-2.39-5.62c-1.92-.76-4.12-.34-6-1.15-1.7-1.21-2-3.58-3.49-4.93a14,14,0,0,0-4.62-.48c-3.83.48-8.05,2.27-9.76,6-1,2.39,1,4.66,3.13,5.51,1,.46,2.11.83,3.17,1.23-.49.22-1,.43-1.48.64-2,.83-4.16,1.55-5.52,3.3-2.22,2.81-2.19,6.67-4.13,9.63-1.3,1.85-3.88,1.25-5.73,2-1.07,1.05-1.16,2.71-1.72,4.05-.37-1.46-.74-2.92-1.09-4.38-1.24,0-2.47-.05-3.7,0A6.4,6.4,0,0,0,22,121.42l-.46,1.24-.65-1c0-1.4.18-2.79.32-4.18-1.53,0-3.06,0-4.58.13l-1.31.82c-1.29.58-.61,3.23-2.24,2.93l-.1-.4c-.17-2.4-.55-4.8-.67-7.21a3,3,0,0,1,1.87-3c4.53-1.72,9.78,1,14.1-1.54,4.58-2.76,5.7-8.47,6.8-13.29-1.78-1.29-4.48-2.39-4.46-5a5.91,5.91,0,0,1,2.24-5.33c5.39-4.78,12.77-6.19,18.68-10.12,2-1.26,3.65-3.55,2.93-6C54,67.14,51.77,66,49.8,65.12c.17,1.72.65,3.47.34,5.2-1.32,1.9-4,1.77-6,2.49L42.91,70.9c-1-1.54-1.85-3.17-2.72-4.79-3.64,4.51-8.08,8.8-13.92,10.12-1.2-.91-2.3-2.06-3.77-2.52-4-.59-8.75,2.22-8.66,6.65l-1.43.37,0-.52c-.08-1.45-.2-2.89-.32-4.33a31.47,31.47,0,0,0-4.24,1.66c.17-1.39.4-2.78.64-4.16-.8.19-1.61.38-2.4.61l-1.69.91a14.54,14.54,0,0,1,1.82-4.55,19.37,19.37,0,0,0-3.44.5L2,71.15c.35-2.38,2.56-3.9,4.69-4.61,4.27-1,9,.24,13-1.92,3.23-1.74,6.33-3.74,9.55-5.51,3.85-2.28,7.88-4.25,11.51-6.88A31.27,31.27,0,0,1,33.16,51c-.5-.91-1-1.8-1.54-2.69A13.9,13.9,0,0,1,27.48,52c-1.73.88-3.72.84-5.61.9a28.84,28.84,0,0,1-3.08-2.54c1.65-.5,4.58.14,5-2.14.61-2-1.23-3.37-2.8-4.08a57.22,57.22,0,0,0-8.32-2.33c0,7.08,0,14.16,0,21.24l-2,.31c-.46-7.33,0-14.68-.2-22-.86-.09-1.72-.17-2.57-.28A4.56,4.56,0,0,1,4.8,39.86c-.62-1.31-1-2.72-1.56-4.06-.79-1.5,1-2.94.36-4.46-.2-1-.57-2.18.09-3.12.74-1.49,2.6-1.7,4.08-1.58l2.75.08c0-.43,0-1.28,0-1.71l-2.75-.16a18.68,18.68,0,0,1-3.95-.64A12.76,12.76,0,0,1,6.34,22.9c-.62-.46-1.24-.91-1.82-1.42-2-2.78-3.35-6.22-2.8-9.7C2,8.57,4.25,6,6.41,3.82c4.65-2.48,10.52.11,13,4.44A11.81,11.81,0,0,1,16.2,22.1c-1.25,1.16-3.27,1.66-3.83,3.43a7.94,7.94,0,0,0,.77,2.93,17.13,17.13,0,0,0,4.73,1.92,33.64,33.64,0,0,1,6.53,3A42.54,42.54,0,0,1,31,40c1.25,1.76,1.24,4,1.58,6.06,2.75-.47,4.37-3.13,4.57-5.74,0-1.46-.82-3.05.12-4.39,1.84-3.37,4.06-6.71,4.48-10.63-2.84-1.3-6.21-2.65-7.14-6l-.22-.52c1.3.71,2.44,1.8,3.91,2.16A8.63,8.63,0,0,0,42,20.27c3.52-.85,5.84-5.14,4-8.41-1-2.13-3.69-1.64-5.62-1.71,1.6-2.48,4.73-2.81,7.42-2.77l3.32-.07A17.17,17.17,0,0,1,52.7,0M8.92,9.71A17,17,0,0,0,7.33,12c-.49,1.28.38,2.48.84,3.62,1.52,1.18,3,2.54,3.33,4.51,3.23-1.56,5.74-5.69,4.07-9.19A4.46,4.46,0,0,0,8.92,9.71M57.1,13.58c1.43,1.74,4,3.65,6.31,2.41a7.43,7.43,0,0,1-2.76-3.45c-1.22.16-3.25-.68-3.55,1m5-1.12a1.91,1.91,0,0,0,1.82,2.35c.33-.84.66-1.67,1-2.51l-2.81.16M5.29,28.54c-.07,1-.13,2-.16,3a21.9,21.9,0,0,0,6.2-.08c-1.55-1.66-3.51-3.74-6-3M5.93,33c-1.22.36-.69,1.83-.89,2.77a7.57,7.57,0,0,0,6.34-1.12A11.63,11.63,0,0,0,5.93,33m-.08,4.49c0,.47,0,1.43,0,1.91a12.94,12.94,0,0,0,4.83-.9c-1.36-1.09-3.16-1.82-4.85-1Z"/><path class="cls-3" d="M47.78,7.37C46.91,3.86,50,1.43,52.7,0a17.17,17.17,0,0,0-1.6,7.31l-3.32.07m-7.84,2.78h.41c1.93.07,4.6-.42,5.62,1.71,1.83,3.28-.49,7.57-4,8.41,1.12-2,2.44-4.25,1.51-6.55C43,12.22,41.28,12.07,40,11.6c0-.36-.08-1.09-.11-1.45Z"/><path class="cls-4" d="M.35,10.36A9.76,9.76,0,0,1,6.41,3.82C4.25,6,2,8.57,1.72,11.78c-.55,3.48.79,6.92,2.8,9.7-3.9-2-5.24-7.09-4.17-11.12M16.63,117.59c1.52-.11,3.05-.11,4.58-.13-.14,1.38-.27,2.78-.32,4.18l-1.37-.88c-.43-1.57-1-3.17-2.89-3.17Z"/><path class="cls-5" d="M19.46,8.26c2.13.19,3.1,2.32,3.86,4A11.4,11.4,0,0,1,21.78,22.9a16.23,16.23,0,0,1-6,4.68,30.54,30.54,0,0,0-3.38-2.05c.56-1.77,2.58-2.26,3.83-3.43A11.81,11.81,0,0,0,19.46,8.26M94.7,54.91a6.46,6.46,0,0,1,4.25,6c.26,3.76-2.46,7.21-5.87,8.54a17.93,17.93,0,0,0-.89-4.5A8.68,8.68,0,0,0,94.7,54.91M41.47,106.2c1.36-1.75,3.55-2.47,5.52-3.3,1.62.8,3.29,1.51,5,2.2-2.48,1.26-5.5,2-7.18,4.37-1.94,2.67-1.92,6.21-3.63,9-1.31,2.13-4.07,1.56-6.07,2.41a26.08,26.08,0,0,0-1.58,4,16.65,16.65,0,0,1-3.6-2.9c.56-1.34.65-3,1.72-4.05,1.85-.8,4.43-.2,5.73-2,1.94-3,1.91-6.82,4.13-9.63Z"/><path class="cls-6" d="M8.92,9.71A4.46,4.46,0,0,1,15.57,11c1.66,3.5-.84,7.63-4.07,9.19-.38-2-1.81-3.34-3.33-4.51,1.76-.12,4.5.1,4.66-2.32.41-2.36-2.08-3.23-3.91-3.64Z"/><path class="cls-7" d="M8.92,9.71c1.82.4,4.32,1.27,3.91,3.64-.16,2.42-2.9,2.2-4.66,2.32-.46-1.14-1.33-2.35-.84-3.62a17,17,0,0,1,1.6-2.33Z"/><path class="cls-8" d="M57.1,13.58c.29-1.72,2.33-.88,3.55-1A7.43,7.43,0,0,0,63.41,16c-2.29,1.24-4.88-.67-6.31-2.41Z"/><path class="cls-9" d="M62.09,12.46l2.81-.16c-.32.84-.65,1.67-1,2.51a1.91,1.91,0,0,1-1.82-2.35Z"/><path class="cls-10" d="M74.14,13.72c1.16,1,2.94,1.81,3.31,3.44-.77,2-2.24,3.57-3.27,5.41-1-.28-2-.6-3-.82a5.05,5.05,0,0,0-.86,1.75c-1.64-1.4-2.84,1-3.65,2.11a25.89,25.89,0,0,1-3.91-.06,5,5,0,0,1,2.61-5.42c1.43-.68,2.48.94,3.55,1.64,1.8-2.63,4-5,5.2-8M54.57,120.11A6.85,6.85,0,0,1,57.36,119l1.64.29c.45.86.91,1.72,1.37,2.57-2,.53-2.8,2.5-3.62,4.2-1.6-1.57-1.72-3.88-2.18-5.93Z"/><path class="cls-11" d="M34.09,22.45a5.41,5.41,0,0,1,.48-3.09c.93,3.33,4.3,4.68,7.14,6-.42,3.91-2.64,7.25-4.48,10.63-.94,1.33-.11,2.92-.12,4.39-.2,2.62-1.82,5.27-4.57,5.74C32.2,44,32.21,41.79,31,40a42.54,42.54,0,0,0-6.56-6.67c2.83.22,5.63.71,8.46.86a46.61,46.61,0,0,0,4.78-7.48c-1.37-1.24-3.28-2.29-3.55-4.3m47,6.25c3.8-1.15,7.9,2.52,7.51,6.38-.31,2.24-1.82,4.08-3.39,5.61-3.17,3-7,5.48-9.45,9.15a9.29,9.29,0,0,0-.62,9.07c2.24,4.89,7,8.19,8.81,13.34a10,10,0,0,1-.73,8.49c-1.77,2.55-5.2,3.41-8.13,2.81a12.33,12.33,0,0,1-8.66-7,36.07,36.07,0,0,0,3,2.34c2.69,1.52,6.23,2.31,9.06.74,2.28-1.26,3-4.23,2.21-6.58-1.07-3.69-4.08-6.29-6.31-9.28-2.92-3.71-4.85-8.89-3-13.51,2.42-5.5,8-8.41,11.76-12.84a5.68,5.68,0,0,0,1.3-3.73,3.7,3.7,0,0,0-4.69-2.6c-.84.53-1.66,1.1-2.45,1.69.9-1.63,1.78-3.64,3.77-4.12M7.85,41c.85.1,1.72.19,2.57.28.21,7.34-.25,14.69.2,22l2-.31a17.47,17.47,0,0,0,3.52-1.25c3.17-1.78,6-4.06,9.08-6,2.58-1.64,5.31-3,7.9-4.67a31.27,31.27,0,0,0,7.57,1.18c-3.63,2.63-7.66,4.6-11.51,6.88-3.22,1.77-6.32,3.77-9.55,5.51-4,2.16-8.73.9-13,1.92-2.12.71-4.33,2.24-4.69,4.61l-.18.67c-1-.5-.34-1.72-.23-2.54.68-3.13,3.89-4.42,6.35-5.9,0-7.45.07-14.89-.05-22.34M49.8,65.12c2,.88,4.21,2,4.68,4.36.72,2.44-1,4.72-2.93,6-5.92,3.94-13.29,5.34-18.68,10.12a5.91,5.91,0,0,0-2.24,5.33c0,2.59,2.68,3.7,4.46,5-1.1,4.82-2.23,10.53-6.8,13.29-4.32,2.51-9.57-.18-14.1,1.54a3,3,0,0,0-1.87,3c.11,2.41.49,4.81.67,7.21A4,4,0,0,1,11.84,118c0-2.65-.59-5.69,1.19-7.94a12.6,12.6,0,0,1,4.18-1.81c3.45,0,7.82,1.53,10.49-1.45,2.06-2.78,2.76-6.38,2.92-9.78-.71-2-3.37-2.77-3.83-5-.82-4.21,2-7.94,4.8-10.75a41.68,41.68,0,0,1,12.59-8.49c2-.72,4.63-.59,6-2.49.31-1.73-.16-3.48-.34-5.2m2.12,24.44a14,14,0,0,1,4.62.48C58.05,91.4,58.33,93.77,60,95c1.91.8,4.12.39,6,1.15a7.46,7.46,0,0,1,2.39,5.62c.1,3.64-1.53,7-3.35,10.08-3.8.39-8-.42-11.41,1.76-2.91,2-1.14,5.84-1.15,8.68a9.47,9.47,0,0,1-.19-8.77c2.46-3,6.74-2.51,10.17-3.11,1.09-.05,1.26-1.29,1.5-2.12a15.69,15.69,0,0,0,0-5.33c-.17-.77-.36-1.52-.55-2.28-1-.31-1.93-.61-2.88-.94a14.35,14.35,0,0,1-7.35-7c-.48-1-.89-2.09-1.3-3.14Z"/><path class="cls-12" d="M7.78,24.85l2.75.16c0,.43,0,1.28,0,1.71l-2.75-.08c0-.45,0-1.34,0-1.79Z"/><path class="cls-13" d="M12.37,25.52a30.54,30.54,0,0,1,3.38,2.05,30.07,30.07,0,0,1,2.12,2.8,17.13,17.13,0,0,1-4.73-1.92,7.94,7.94,0,0,1-.77-2.93Z"/><path class="cls-14" d="M5.29,28.54c2.53-.77,4.48,1.31,6,3a21.9,21.9,0,0,1-6.2.08c0-1,.09-2,.16-3Z"/><path class="cls-15" d="M66.64,28.55l3.37.08c.19,2.12.37,4.24.54,6.37-2.11-1.07-4.69-3.38-7-1.57-2.67,1.82-1.85,5.41-1.4,8.1a5.88,5.88,0,0,1-3.65-3.83c-.72-2.48-.82-6.11,1.85-7.46,2.4-1.1,4.7.8,6.67,1.95-.14-1.21-.29-2.42-.35-3.64m1.17,13.71.38,1,2.14-.82c1.15,2.39,1.71,5.62-.25,7.74-1.79,2.16-4.81,2.15-7.35,2.53-.36,3.61,2.07,6.61,2.51,10.09a62.07,62.07,0,0,0,4.2,16.12,36.07,36.07,0,0,1-3-2.34c-3-5.3-3.89-11.43-4.85-17.36-.42-3.34-3.07-6-2.52-9.55,2.5-.14,5.37-.12,7.22-2.11,1.48-1.33,1.53-3.46,1.56-5.3Z"/><path class="cls-16" d="M94.09,29.09c3,1,4.51,4.23,4.4,7.25.17,3.54-1.9,6.7-4.39,9-2,1.8-4.18,3.41-6.2,5.18-3.64-.24-6.8,1.67-9.62,3.7a13.17,13.17,0,0,1,3-4.33c4.06-3.74,9.32-6.31,12.29-11.14a10.88,10.88,0,0,0,.58-9.7M81,62.75c.53-1.51,1.27-3.21,3-3.55,2.23-.85,4.41.72,5.26,2.74-1.25.32-2.77.31-3.65,1.39a3,3,0,0,0,.11,4.15c2.55,3,5.35,5.93,6.4,9.8,1,3.28.62,7.27-2,9.71-3.2,3.4-8.39,3.55-12.64,2.48-2.7-.76-5.62-1.76-7.34-4.13,4.53,1.79,10,2.74,14.45.34,3.78-2,5.3-6.83,4.07-10.79-1.12-4.83-4.91-8.24-7.68-12.13M26.26,76.24c5.84-1.32,10.28-5.62,13.92-10.12.88,1.61,1.72,3.25,2.72,4.79-4,3.14-7.72,7.2-13,8.18-1.37-1-2.63-2.26-4.3-2.64a9,9,0,0,0-7.06,3.25c-.76,1.78-1.66,3.5-2.44,5.27-.23,3.4-.11,6.82-.08,10.22-.08,2,2.36,3.24,1.73,5.32a34.86,34.86,0,0,0-.55,7.74A12.6,12.6,0,0,0,13,110a4.56,4.56,0,0,1-3-2.68c1.36-.66,3.16-1.11,3.71-2.71.3-1.57-.25-3.18.07-4.75a24.18,24.18,0,0,0,.44-4.46c-.63-.68-1.82-1.1-1.8-2.17-.19-4.18.08-8.36-.08-12.53l1.43-.37c-.1-4.43,4.64-7.24,8.66-6.65,1.47.46,2.57,1.61,3.77,2.52m15.9,19.28c1.7-3.68,5.93-5.48,9.76-6,.4,1.06.82,2.11,1.3,3.14-2.38,1.07-5,2.06-6.65,4.15-1,1.16-1,2.75-1.28,4.17-2.1-.85-4.17-3.12-3.13-5.51M15.32,118.41l1.31-.82c1.93,0,2.46,1.6,2.89,3.17-.86,1.13-1.66,2.3-2.47,3.46-2.09-1.16-1.61-3.82-1.73-5.81m6.68,3a6.4,6.4,0,0,1,3.09-3.88,12.93,12.93,0,0,1,3,3.1A18.28,18.28,0,0,0,25,125.4a9.44,9.44,0,0,1-3-4m40.28.62c.71-1.42,1.56-3.1,3.43-3,.8.83,1.62,1.64,2.42,2.47l.29.32A21.71,21.71,0,0,0,65.13,126,14.07,14.07,0,0,1,62.29,122Z"/><path class="cls-17" d="M79.75,31.13a3.7,3.7,0,0,1,4.69,2.6,13.1,13.1,0,0,0-4.75,3.75,47.64,47.64,0,0,0,.06-6.35Z"/><path class="cls-18" d="M5.93,33a11.63,11.63,0,0,1,5.45,1.65A7.57,7.57,0,0,1,5,35.78c.2-.94-.34-2.41.89-2.77Z"/><path class="cls-19" d="M5.84,37.51c1.69-.81,3.49-.08,4.85,1a12.94,12.94,0,0,1-4.83.9c0-.48,0-1.44,0-1.91Z"/><path class="cls-20" d="M12.62,41.77a57.22,57.22,0,0,1,8.32,2.33c.24.55.47,1.12.7,1.67q-2.75-.56-5.51-1c-.19,5.65-.14,11.32,0,17A17.47,17.47,0,0,1,12.66,63c-.09-7.08,0-14.16,0-21.24Z"/><path class="cls-21" d="M20.94,44.11c1.57.71,3.41,2.09,2.8,4.08-.37,2.28-3.3,1.63-5,2.14,1-.73,2.29-1.22,3-2.29a6.25,6.25,0,0,0-.17-2.26c-.23-.56-.46-1.12-.7-1.67Z"/><path class="cls-22" d="M27.48,52a13.9,13.9,0,0,0,4.14-3.6c.52.89,1,1.78,1.54,2.69-2.59,1.63-5.32,3-7.9,4.67-1.1-1-2.21-2-3.39-2.86,1.89-.06,3.88,0,5.61-.9Z"/><path class="cls-23" d="M82.11,58a5.84,5.84,0,0,1,9.1.36c1.75,2,.89,4.74.52,7.06a8.86,8.86,0,0,1-2.41,1.22c0-1.58.09-3.16-.07-4.72-.85-2-3-3.59-5.26-2.74-1.76.34-2.5,2-3,3.55,0-1.62,0-3.44,1.14-4.73M6.05,74c.79-.23,1.6-.43,2.4-.61-.24,1.38-.46,2.77-.64,4.16a31.47,31.47,0,0,1,4.24-1.66c.13,1.44.25,2.88.32,4.33l-1.82-1.92c-.26,5.41,0,10.84-.06,16.25-.11.88.08,2.1-.92,2.54a17.24,17.24,0,0,1-3.84.69c0-.88-.08-1.77-.12-2.65l2.15-.79c.34-4.33.05-8.68.17-13,.24-2.62-1.4-4.84-1.89-7.33Z"/><path class="cls-24" d="M2.75,70.87a19.37,19.37,0,0,1,3.44-.5,14.54,14.54,0,0,0-1.82,4.55l-.19.72c-.56-1.57-.59-3.31-1.43-4.77Z"/><path class="cls-25" d="M10.55,78.31l1.82,1.92,0,.52c.17,4.18-.1,8.36.08,12.53,0,1.07,1.17,1.49,1.8,2.17a24.18,24.18,0,0,1-.44,4.46c-.32,1.57.23,3.17-.07,4.75-.55,1.6-2.35,2.05-3.71,2.71A6.66,6.66,0,0,1,6,104a14.54,14.54,0,0,0,4,.82,2.59,2.59,0,0,0,.82-4.36c-1.57-.81-3.4-.82-5.12-1,0-.42.06-1.25.08-1.66a17.24,17.24,0,0,0,3.84-.69c1-.44.8-1.66.92-2.54.05-5.41-.2-10.84.06-16.25Z"/><path class="cls-26" d="M64.93,82.23c1.32.73,2.58,1.54,3.85,2.35-.28,2.49,1,4.72,1.85,7a13.68,13.68,0,0,1-5.7-9.32Z"/><path class="cls-27" d="M78.22,96.21c2-.05,4.06-.18,6.08-.36-4.87,5.06-6.79,12.23-6.38,19.13,0,2,.58,4,0,6-.79,1.42-2.74,1.31-4.1,1.88-.47.8-1,1.59-1.43,2.38-1.23-1-2.44-2-3.64-3,.67-1,1.1-2.47,2.51-2.6,1.55-.29,3.53-.9,3.29-2.88-.44-7-.67-14.62,3.63-20.57Z"/><path class="cls-28" d="M5.66,99.45c1.72.19,3.55.2,5.12,1a2.59,2.59,0,0,1-.82,4.36A14.54,14.54,0,0,1,6,104a6.38,6.38,0,0,1,1.34-3.85l-1.65-.7Z"/><path class="cls-29" d="M60.56,99.72c1,.33,1.92.63,2.88.94.19.76.38,1.51.55,2.28a9.84,9.84,0,0,1-3.43-3.21Z"/><path class="cls-30" d="M25.1,117.54c1.23,0,2.46,0,3.7,0,.35,1.46.72,2.92,1.09,4.38a12.91,12.91,0,0,1-1.83-1.29,12.93,12.93,0,0,0-3-3.1Z"/><path class="cls-31" d="M57.36,119c1.14-.18,2.3-.27,3.45-.35.07,1.47.14,2.94.22,4.42l-.66-1.2c-.47-.85-.92-1.71-1.37-2.57L57.36,119Z"/><path class="cls-32" d="M65.72,119.07l1.65.17c.25.77.49,1.54.77,2.3-.8-.83-1.62-1.64-2.42-2.47Z"/><text class="cls-33" transform="translate(102.45 108.76) scale(0.68 1)">JSGC</text></g></g></svg>